<svg width="16" height="16" viewBox="0 0 16 16" fill="none" xmlns="http://www.w3.org/2000/svg">
<mask id="mask0" mask-type="alpha" maskUnits="userSpaceOnUse" x="0" y="0" width="16" height="16">
<path d="M0 8C0 8.70877 0.491571 9.30272 1.15238 9.45952C1.72391 12.1542 3.84581 14.2761 6.54049 14.8476C6.69729 15.5084 7.29124 16 8 16C8.70876 16 9.30271 15.5084 9.45951 14.8476C12.1542 14.2761 14.2761 12.1542 14.8476 9.45952C15.5084 9.30271 16 8.70877 16 8.00002C16 7.29127 15.5084 6.69732 14.8476 6.54051C14.2761 3.84582 12.1542 1.72391 9.45951 1.15238C9.30271 0.491572 8.70876 0 8 0C7.29124 0 6.69729 0.491572 6.54049 1.15238C3.84581 1.72391 1.72391 3.84581 1.15238 6.54049C0.49157 6.69729 0 7.29124 0 8Z" fill="white"/>
</mask>
<g mask="url(#mask0)">
<circle cx="8" cy="8" r="8" fill="url(#paint0_linear)"/>
<path fill-rule="evenodd" clip-rule="evenodd" d="M9 2.61805C9.30687 2.34339 9.5 1.94425 9.5 1.5C9.5 0.671573 8.82843 0 8 0C7.17157 0 6.5 0.671573 6.5 1.5C6.5 1.94425 6.69313 2.34339 7 2.61805V4H9V2.61805Z" fill="#9DF3F9"/>
<path fill-rule="evenodd" clip-rule="evenodd" d="M7 13.3819C6.69313 13.6566 6.5 14.0558 6.5 14.5C6.5 15.3284 7.17157 16 8 16C8.82843 16 9.5 15.3284 9.5 14.5C9.5 14.0558 9.30687 13.6566 9 13.3819L9 12L7 12L7 13.3819Z" fill="#82EBF1"/>
<path fill-rule="evenodd" clip-rule="evenodd" d="M2.61805 7C2.34339 6.69313 1.94425 6.5 1.5 6.5C0.671573 6.5 -1.01779e-07 7.17157 -6.55671e-08 8C-2.93554e-08 8.82843 0.671573 9.5 1.5 9.5C1.94425 9.5 2.34339 9.30688 2.61805 9L4 9L4 7L2.61805 7Z" fill="#9DF3F9"/>
<g opacity="0.5">
<path d="M12.3346 8.50326C12.3346 10.8965 10.3945 12.8366 8.0013 12.8366C5.60807 12.8366 3.66797 10.8965 3.66797 8.50326C3.66797 6.11002 5.60807 4.16992 8.0013 4.16992C10.3945 4.16992 12.3346 6.11002 12.3346 8.50326Z" fill="black"/>
<path d="M9.73373 9.50326C9.38792 10.1011 8.74157 10.5033 8.00128 10.5033C6.89671 10.5033 6.00128 9.60784 6.00128 8.50327C6.00128 7.3987 6.89671 6.50327 8.00128 6.50327C8.74156 6.50327 9.3879 6.90546 9.73371 7.50326H14.0013V9.50326H9.73373Z" fill="black"/>
<path d="M14.5013 10.0033C13.6729 10.0033 13.0013 9.3317 13.0013 8.50327C13.0013 7.67485 13.6729 7.00327 14.5013 7.00327C15.3297 7.00327 16.0013 7.67485 16.0013 8.50327C16.0013 9.3317 15.3297 10.0033 14.5013 10.0033Z" fill="black"/>
<path d="M12.3346 8.50326C12.3346 10.8965 10.3945 12.8366 8.0013 12.8366C5.60807 12.8366 3.66797 10.8965 3.66797 8.50326C3.66797 6.11002 5.60807 4.16992 8.0013 4.16992C10.3945 4.16992 12.3346 6.11002 12.3346 8.50326Z" stroke="black" stroke-opacity="0.5"/>
<path d="M9.73373 9.50326C9.38792 10.1011 8.74157 10.5033 8.00128 10.5033C6.89671 10.5033 6.00128 9.60784 6.00128 8.50327C6.00128 7.3987 6.89671 6.50327 8.00128 6.50327C8.74156 6.50327 9.3879 6.90546 9.73371 7.50326H14.0013V9.50326H9.73373Z" stroke="black" stroke-opacity="0.5"/>
<path d="M14.5013 10.0033C13.6729 10.0033 13.0013 9.3317 13.0013 8.50327C13.0013 7.67485 13.6729 7.00327 14.5013 7.00327C15.3297 7.00327 16.0013 7.67485 16.0013 8.50327C16.0013 9.3317 15.3297 10.0033 14.5013 10.0033Z" stroke="black" stroke-opacity="0.5"/>
</g>
<circle cx="8.0013" cy="7.99984" r="4.33333" fill="url(#paint1_linear)"/>
<path fill-rule="evenodd" clip-rule="evenodd" d="M9.73244 8.99999C9.38664 9.5978 8.74029 10 8 10C6.89543 10 6 9.10457 6 8C6 6.89543 6.89543 6 8 6C8.74028 6 9.38662 6.40219 9.73243 6.99999L14 6.99999V8.99999H9.73244Z" fill="url(#paint2_linear)"/>
<path d="M14.5 9.5C13.6716 9.5 13 8.82843 13 8C13 7.17157 13.6716 6.5 14.5 6.5C15.3284 6.5 16 7.17157 16 8C16 8.82843 15.3284 9.5 14.5 9.5Z" fill="url(#paint3_linear)"/>
</g>
<defs>
<linearGradient id="paint0_linear" x1="3.78378" y1="1.89189" x2="12.1081" y2="14.1081" gradientUnits="userSpaceOnUse">
<stop stop-color="#009CA8"/>
<stop offset="1" stop-color="#007D85"/>
</linearGradient>
<linearGradient id="paint1_linear" x1="5.2986" y1="4.37822" x2="11.0283" y2="13.8917" gradientUnits="userSpaceOnUse">
<stop stop-color="#36E3EE"/>
<stop offset="1" stop-color="#00B1BE"/>
</linearGradient>
<linearGradient id="paint2_linear" x1="5.1892" y1="3.99999" x2="12.5406" y2="10.5946" gradientUnits="userSpaceOnUse">
<stop stop-color="#D2F6F9"/>
<stop offset="1" stop-color="#82EBF1"/>
<stop offset="1" stop-color="#82EBF1"/>
</linearGradient>
<linearGradient id="paint3_linear" x1="16.1622" y1="8.48647" x2="12.0541" y2="7.02701" gradientUnits="userSpaceOnUse">
<stop stop-color="#9AEEF3"/>
<stop offset="1" stop-color="#82EBF1"/>
</linearGradient>
</defs>
</svg>
