<?xml version="1.0" standalone="no"?>
<!DOCTYPE svg PUBLIC "-//W3C//DTD SVG 20010904//EN"
 "http://www.w3.org/TR/2001/REC-SVG-20010904/DTD/svg10.dtd">
<svg version="1.0" xmlns="http://www.w3.org/2000/svg"
 width="400.000000pt" height="400.000000pt" viewBox="0 0 400.000000 400.000000"
 preserveAspectRatio="xMidYMid meet">
<metadata>
Created by potrace 1.14, written by Peter Selinger 2001-2017
</metadata>
<g transform="translate(0.000000,400.000000) scale(0.100000,-0.100000)"
fill="#000000" stroke="none">
<path d="M0 3240 l0 -760 33 0 c18 0 38 5 43 10 7 7 23 6 50 -3 46 -16 65 -12
57 11 -4 14 -3 15 6 2 13 -18 152 -26 280 -15 70 6 82 9 63 18 -15 7 -34 7
-61 -1 -42 -13 -189 -17 -177 -4 8 8 44 13 94 12 21 0 32 5 32 14 0 11 -10 13
-45 10 -46 -5 -55 2 -32 25 8 10 8 12 0 7 -7 -3 -27 0 -45 8 l-33 14 32 1 c17
1 33 5 35 10 2 5 26 5 58 0 30 -5 63 -6 73 -3 9 3 17 1 17 -4 0 -16 -30 -23
-69 -16 -28 5 -34 4 -24 -6 8 -9 30 -11 77 -5 64 6 85 19 49 28 -10 3 -3 5 15
6 34 1 44 17 15 24 -10 2 0 2 22 -1 22 -2 44 -11 48 -18 4 -8 17 -14 27 -14
12 0 17 -5 14 -14 -4 -9 7 -15 35 -20 27 -4 41 -11 41 -21 0 -18 16 -20 23 -2
4 9 8 8 17 -3 8 -12 9 -8 4 15 -3 17 -7 35 -9 42 -5 16 19 34 38 28 9 -4 23 4
36 22 11 15 29 37 39 48 11 11 22 28 26 38 6 19 43 19 39 1 -1 -7 54 -11 155
-11 94 -1 174 -6 199 -13 31 -10 49 -10 74 -1 39 13 116 15 124 1 7 -11 31 -3
67 23 16 12 33 17 44 13 16 -6 16 -8 4 -16 -9 -6 -14 -21 -12 -41 3 -26 1 -31
-12 -26 -10 4 -20 -1 -27 -14 -6 -11 -13 -18 -16 -16 -2 3 0 15 7 26 9 18 8
22 -6 28 -10 4 -19 2 -22 -5 -2 -6 -11 -8 -20 -5 -16 6 -15 5 1 -14 9 -11 17
-27 17 -37 0 -9 11 -21 25 -26 29 -11 31 -22 10 -40 -20 -17 -19 -37 3 -45 44
-14 122 -119 122 -163 0 -7 4 -12 9 -12 10 0 32 -157 24 -177 -3 -8 -13 -11
-24 -8 -22 7 -25 -5 -7 -23 10 -10 10 -15 -1 -21 -15 -10 -7 -31 12 -31 24 0
113 -49 143 -78 35 -34 67 -36 72 -4 3 22 13 28 25 15 4 -3 1 -13 -6 -21 -10
-13 -9 -14 10 -3 28 15 30 37 3 44 -15 4 -20 14 -20 40 0 19 7 40 15 47 18 15
20 -1 3 -18 -9 -9 -8 -12 8 -12 11 0 26 6 33 13 10 10 12 9 9 -3 -4 -21 28
-14 75 16 21 14 49 29 63 34 14 6 23 14 20 18 -2 4 4 8 14 8 16 0 19 -7 17
-41 -1 -22 -6 -43 -10 -46 -5 -4 4 -10 20 -13 15 -4 36 -15 46 -24 10 -9 33
-15 52 -15 55 2 55 -16 -1 -55 -25 -17 -30 -27 -26 -47 5 -29 5 -29 42 -10 17
9 30 12 30 8 0 -5 5 0 11 10 5 9 17 17 24 17 8 0 15 6 15 14 0 8 7 16 14 19
10 4 13 1 10 -8 -3 -8 1 -22 10 -30 23 -23 20 -42 -3 -21 -17 16 -19 16 -25
-6 -7 -22 -8 -22 -15 -4 -5 12 -10 15 -14 9 -8 -13 18 -37 31 -29 9 5 52 -71
52 -93 0 -6 5 -11 10 -11 6 0 10 -8 10 -17 0 -15 2 -16 10 -3 5 8 19 15 32 15
18 0 24 6 26 28 2 19 8 27 17 23 9 -3 15 3 17 17 3 19 8 15 36 -27 25 -39 32
-45 32 -28 0 12 3 22 8 22 10 0 27 -43 52 -135 12 -44 30 -93 38 -110 15 -27
17 -28 20 -9 1 11 -3 34 -9 50 -7 16 -12 32 -11 36 1 4 -5 22 -12 40 -7 18
-16 46 -20 62 -6 26 -5 28 8 17 24 -20 139 -259 140 -292 1 -16 4 -29 9 -29 4
0 7 -9 7 -21 0 -11 4 -18 9 -15 5 3 12 -6 16 -22 3 -15 13 -41 22 -59 8 -17
13 -40 10 -50 -3 -15 -6 -13 -15 9 -6 14 -15 29 -20 32 -9 5 -6 -9 28 -154 27
-109 32 -163 20 -194 -9 -24 -12 -26 -25 -13 -8 9 -24 13 -35 10 -18 -5 -19
-1 -16 42 5 62 -8 113 -33 139 -21 20 -21 20 -36 1 -8 -11 -13 -25 -10 -32 2
-7 -1 -15 -7 -19 -6 -4 -8 -3 -5 2 3 6 -3 15 -14 22 -23 15 -23 11 -4 -52 19
-61 19 -89 3 -81 -7 4 -5 0 5 -8 24 -20 21 -30 -5 -21 -20 6 -21 5 -10 -9 11
-13 10 -16 -5 -20 -17 -4 -17 -5 0 -6 9 0 17 -4 17 -9 0 -12 -55 -32 -84 -30
-24 2 -25 4 -10 15 10 7 15 16 11 19 -3 3 -18 -3 -33 -15 -15 -11 -23 -21 -18
-21 5 -1 -17 -14 -48 -30 -41 -21 -56 -34 -52 -45 4 -9 0 -15 -7 -16 -8 0 0
-5 16 -10 47 -15 238 -10 279 7 16 6 18 4 13 -9 -5 -15 -3 -15 15 -4 12 6 28
18 36 25 28 25 55 33 127 38 40 2 85 8 100 14 14 5 42 10 61 10 19 0 34 5 34
10 0 6 6 10 14 10 15 0 31 18 24 26 -3 2 -20 -2 -39 -10 -57 -23 -79 -28 -79
-17 0 5 8 12 18 15 9 3 31 19 47 34 17 15 38 31 48 35 15 6 17 18 16 84 0 43
4 106 11 141 6 35 10 71 9 80 -4 26 11 79 25 91 20 16 30 -127 13 -177 -9 -26
-10 -55 -4 -97 5 -38 4 -74 -3 -98 -9 -31 -9 -42 3 -55 7 -10 13 -30 12 -47 0
-16 3 -36 8 -42 13 -18 38 -16 31 1 -9 23 14 28 26 5 9 -16 18 -19 38 -15 20
5 23 4 12 -4 -8 -5 -22 -10 -32 -10 -11 0 -15 -6 -11 -20 3 -11 14 -20 24 -20
10 0 21 -5 25 -11 4 -6 20 -8 40 -4 21 3 34 2 34 -5 0 -5 -4 -10 -10 -10 -5 0
-10 -4 -10 -10 0 -5 6 -10 14 -10 20 0 31 -21 16 -30 -8 -5 -2 -11 18 -18 24
-8 29 -15 25 -31 -3 -12 -1 -21 6 -21 6 0 11 -18 11 -42 0 -59 10 -70 66 -73
32 -2 42 -1 29 5 -38 15 12 23 105 16 94 -7 153 0 128 15 -12 8 21 13 84 12
17 0 18 20 18 276 l-1 276 -62 1 c-34 1 -84 3 -112 4 -27 0 -51 -3 -53 -8 -1
-5 -14 -7 -29 -4 -20 4 -24 2 -18 -8 7 -11 -4 -12 -51 -6 -105 13 -214 1 -214
-24 0 -5 -8 -11 -17 -13 -10 -3 2 -3 27 -1 l45 3 -30 -16 c-25 -13 -36 -14
-73 -4 -24 6 -49 17 -56 24 -9 9 -15 77 -20 227 -4 118 -11 253 -16 300 -5 47
-12 123 -15 170 -3 47 -8 99 -10 115 -3 17 -12 95 -20 175 -16 152 -42 275
-68 325 -8 17 -35 57 -59 90 -24 33 -47 65 -50 70 -4 6 19 11 60 12 42 0 59
-2 47 -7 -31 -12 -5 -18 118 -25 114 -7 151 7 51 20 -99 12 -52 14 81 4 131
-10 175 -24 175 -54 0 -11 -12 -15 -45 -15 -41 0 -45 -2 -36 -18 9 -16 26 -19
144 -21 86 -1 138 2 142 8 11 20 49 11 85 -19 19 -17 44 -30 56 -30 20 0 22 5
22 45 0 35 -3 45 -16 45 -15 1 -15 2 1 14 15 12 17 32 17 165 l0 151 -24 0
c-14 0 -28 5 -31 10 -4 6 7 10 24 10 l31 0 0 139 c0 137 0 140 -22 144 l-23 4
23 2 22 1 0 325 0 325 -35 0 c-19 0 -35 -4 -35 -10 0 -5 6 -10 14 -10 9 0 12
-8 8 -25 -2 -14 -11 -25 -18 -25 -8 0 -14 -4 -14 -10 0 -6 -9 -6 -22 -1 -13 4
-68 6 -124 3 -99 -4 -101 -5 -98 -28 3 -27 -12 -29 -101 -15 -30 5 -52 5 -56
-1 -5 -9 -151 -33 -264 -45 -27 -3 -55 -9 -62 -15 -8 -6 -19 -6 -32 1 -27 15
-56 14 -70 -3 -10 -12 -3 -16 43 -21 31 -4 72 -4 92 -1 22 5 41 3 50 -5 12
-10 13 -9 8 5 -3 9 -11 16 -17 16 -6 0 -8 3 -4 6 3 3 16 -1 29 -10 12 -9 36
-16 53 -16 16 0 44 -4 62 -9 27 -8 31 -7 25 7 -5 15 -4 15 11 3 9 -7 17 -22
17 -33 0 -16 5 -19 28 -14 15 3 33 2 41 -3 8 -5 -10 -11 -53 -16 -36 -3 -68
-11 -71 -16 -7 -11 35 -28 95 -39 l45 -8 -55 -1 -55 -1 29 -15 c15 -8 44 -15
62 -15 19 0 34 -4 34 -10 0 -5 -13 -10 -30 -10 -16 0 -30 -3 -30 -6 0 -13 27
-29 55 -32 17 -2 34 -8 40 -13 12 -12 38 -12 30 1 -3 6 1 10 9 10 8 0 18 -5
21 -11 4 -6 19 -7 36 -4 22 5 29 3 29 -9 0 -12 11 -16 50 -16 28 0 50 -4 50
-10 0 -5 -32 -10 -72 -9 -40 0 -215 -5 -388 -10 -173 -5 -409 -10 -523 -10
-208 -1 -208 -1 -202 -22 5 -15 4 -19 -4 -15 -7 5 -11 -4 -12 -26 l-1 -33 -9
32 c-5 18 -13 32 -17 31 -8 -3 -62 49 -62 59 0 11 -53 63 -64 63 -7 0 -12 -58
-13 -173 -1 -103 -8 -216 -18 -282 -22 -140 -21 -168 4 -209 28 -44 27 -59 -1
-51 -23 7 -23 7 -3 -9 19 -16 19 -17 -10 -15 -47 2 -52 -1 -26 -15 21 -12 17
-13 -40 -11 -35 2 -92 10 -125 19 -34 9 -75 16 -90 16 l-29 0 30 -18 c30 -19
83 -37 98 -34 4 1 7 -3 7 -9 0 -6 8 -8 18 -5 16 6 16 5 0 -7 -19 -15 -14 -27
9 -27 8 0 12 4 9 9 -3 5 1 12 10 15 24 9 31 7 14 -5 -11 -7 -6 -9 20 -4 64 12
74 16 59 26 -11 7 -11 9 -1 9 7 0 20 -7 29 -15 19 -19 32 -16 55 16 23 31 68
208 69 274 0 53 17 113 18 68 1 -12 5 -24 10 -27 11 -7 22 33 27 99 2 28 7 75
12 105 l10 55 1 -77 c0 -42 5 -79 9 -82 11 -6 38 11 30 19 -3 4 1 15 10 26 9
11 17 25 18 32 0 6 2 22 2 35 1 12 7 22 13 22 7 0 9 -10 5 -25 -4 -17 -1 -31
8 -41 8 -8 13 -21 10 -29 -4 -8 -2 -15 4 -15 5 0 12 -7 15 -14 4 -11 1 -13
-11 -9 -9 4 -20 10 -23 15 -6 10 -39 0 -39 -12 0 -4 29 -21 64 -38 35 -17 67
-35 71 -41 9 -15 4 -14 -52 10 -64 27 -134 40 -137 25 -26 -102 -27 -108 -9
-122 10 -7 38 -23 63 -36 25 -12 77 -44 117 -70 39 -27 74 -48 78 -48 4 0 19
-10 33 -22 20 -15 22 -19 7 -13 -11 4 -28 10 -37 12 -10 3 -18 9 -18 13 0 4
-8 10 -17 14 -10 3 -25 10 -33 15 -58 37 -121 70 -115 61 14 -22 -10 -8 -53
32 -28 25 -47 37 -50 30 -2 -7 2 -19 8 -28 11 -12 10 -13 -4 -8 -29 11 -17
-12 21 -39 21 -15 34 -27 29 -27 -4 0 -21 9 -38 21 -27 20 -30 20 -42 4 -10
-14 -6 -22 27 -56 22 -21 43 -39 48 -39 4 0 11 -4 14 -10 8 -13 -39 4 -68 25
-25 18 -47 19 -47 4 0 -13 13 -26 65 -64 58 -44 63 -48 94 -75 16 -14 43 -36
61 -50 18 -14 51 -42 74 -64 22 -21 61 -46 86 -57 55 -22 48 -23 -24 -5 -61
16 -91 30 -121 56 -11 9 -52 37 -91 62 l-70 45 0 -61 c1 -33 5 -67 9 -74 5 -7
5 -21 2 -32 -6 -20 14 -50 33 -50 5 0 12 -9 15 -20 4 -17 9 -19 31 -11 20 8
24 7 19 -4 -3 -11 2 -15 18 -15 22 0 22 -1 4 -13 -31 -23 1 -31 107 -29 58 1
99 -2 103 -8 4 -6 11 -7 17 -4 7 4 8 -5 3 -26 -6 -30 -5 -32 11 -25 11 4 27
10 36 12 10 3 15 9 13 14 -3 4 3 12 13 18 14 7 21 5 30 -9 9 -15 7 -19 -12
-24 -12 -3 -35 -16 -50 -30 -16 -13 -79 -49 -142 -79 -67 -33 -120 -66 -129
-81 -9 -13 -24 -27 -33 -31 -13 -5 -12 -2 3 15 19 20 19 21 -1 14 -16 -6 -17
-5 -7 7 10 12 4 14 -35 15 -26 0 -50 -4 -54 -9 -3 -6 -18 3 -33 19 -15 16 -34
29 -44 29 -9 1 -15 6 -14 13 2 6 -4 9 -12 6 -8 -4 -15 -1 -15 5 0 6 -12 11
-27 11 -21 0 -24 3 -13 10 12 8 12 10 -3 16 -9 3 -14 11 -10 17 4 7 0 8 -11 4
-14 -5 -17 -3 -12 8 3 8 2 14 -2 12 -4 -1 -21 10 -37 26 -16 15 -33 27 -37 27
-4 0 -8 10 -10 23 -2 18 -10 23 -43 25 l-40 4 25 14 25 15 -27 -4 c-18 -3 -25
0 -22 8 6 15 -23 28 -32 14 -3 -6 -16 -14 -28 -18 -14 -6 -21 -17 -21 -36 -1
-37 -37 -45 -59 -13 -21 30 -32 16 -12 -15 23 -34 12 -57 -26 -52 -40 5 -53
18 -33 35 21 17 19 37 -5 50 -17 9 -20 8 -20 -13 0 -25 -28 -57 -48 -57 -7 0
-12 -5 -12 -11 0 -5 -4 -7 -10 -4 -6 4 -4 14 5 28 10 16 13 52 12 140 -1 82 2
120 10 125 7 5 9 13 4 21 -7 11 -13 9 -27 -8 -11 -13 -27 -27 -36 -32 -14 -8
-16 -6 -11 7 5 15 3 14 -23 -2 -16 -10 -39 -27 -51 -38 -27 -23 -29 -15 -6 22
l17 27 -25 -23 -26 -22 -11 25 c-10 22 -18 25 -61 25 -27 0 -53 5 -56 10 -4 6
-6 83 -6 172 0 120 4 164 13 170 7 5 40 6 74 2 58 -6 61 -5 67 17 3 12 2 29
-2 38 -13 25 -13 128 -1 152 9 15 9 24 1 32 -16 16 -13 27 7 27 10 0 23 5 29
11 12 12 47 -17 38 -32 -4 -5 2 -6 11 -2 11 4 15 3 11 -4 -9 -15 3 -44 14 -37
5 3 9 0 9 -6 0 -6 5 -8 10 -5 6 3 14 -5 20 -19 5 -14 23 -32 40 -41 l30 -16 0
49 c0 27 3 71 7 97 5 38 3 46 -7 40 -10 -6 -12 -3 -8 13 4 12 2 24 -3 27 -4 3
-11 -5 -15 -19 -8 -34 -31 -40 -38 -10 -4 13 -13 24 -21 24 -17 0 -22 75 -5
85 6 4 8 30 5 63 -4 43 -3 51 4 35 6 -13 15 -23 21 -23 6 0 14 10 19 23 5 12
20 33 33 47 43 44 62 80 49 93 -6 6 -11 23 -11 39 0 15 -6 31 -13 35 -7 4 -28
34 -46 66 -18 31 -38 57 -44 57 -6 0 -32 21 -58 46 -72 71 -157 83 -249 36
-62 -32 -130 -91 -130 -113 0 -8 -8 -22 -17 -31 -35 -33 -46 -50 -55 -90 -11
-51 -5 -69 31 -96 l30 -22 6 28 c7 31 49 66 71 58 7 -3 14 -16 14 -29 0 -13 4
-27 10 -33 7 -7 -7 -23 -40 -48 -55 -42 -58 -50 -33 -78 16 -18 -5 -18 -672
-18 -378 1 -685 3 -682 6 3 3 26 8 52 10 26 3 57 11 70 20 12 8 43 16 68 17
25 1 43 5 40 10 -2 4 12 7 32 7 30 0 36 3 31 16 -5 14 -1 16 26 10 20 -4 28
-3 19 3 -9 6 -10 10 -2 16 7 4 23 -1 37 -10 14 -9 33 -14 42 -12 12 3 10 5 -5
6 -13 1 -23 7 -23 16 0 20 12 19 43 -5 28 -22 43 -25 52 -11 3 6 -10 17 -30
27 -37 17 -44 29 -21 37 9 4 12 14 9 26 -4 16 -1 21 13 21 9 0 14 3 11 6 -3 4
-2 15 3 24 14 26 105 38 183 24 24 -4 37 -2 37 5 0 6 -13 11 -30 11 -30 0 -41
14 -17 23 9 4 9 6 0 6 -26 2 -12 21 15 22 16 0 21 3 12 6 -8 3 -18 10 -21 16
-9 13 -34 -4 -34 -23 0 -9 -9 -15 -24 -15 -32 0 -39 22 -9 28 18 3 16 5 -8 6
-17 0 -38 8 -45 17 -9 11 -23 14 -45 11 -23 -4 -35 0 -47 14 -9 10 -22 19 -29
19 -22 0 -20 65 2 90 11 13 20 26 20 30 0 10 62 35 78 32 6 -2 12 2 12 8 0 5
-5 10 -11 10 -19 0 -3 25 17 26 46 2 52 5 57 24 3 10 17 22 33 26 15 4 39 20
52 36 31 37 42 35 43 -4 0 -30 1 -31 9 -10 6 14 18 22 34 22 14 0 28 5 31 10
3 6 30 11 58 11 29 1 66 5 82 9 17 4 -223 8 -532 9 l-563 1 0 -760z m329 546
c15 -17 5 -43 -17 -43 -22 0 -56 33 -47 46 9 15 50 14 64 -3z m3176 -216 c3
-5 1 -10 -4 -10 -6 0 -11 5 -11 10 0 6 2 10 4 10 3 0 8 -4 11 -10z m200 0 c-7
-12 -105 -10 -105 2 0 4 25 8 56 8 34 0 53 -4 49 -10z m-3273 -32 c50 -11 87
-28 60 -28 -7 0 -12 -6 -12 -14 0 -8 -14 -21 -30 -30 -30 -14 -31 -14 -42 10
-9 19 -18 24 -35 21 -25 -5 -26 -3 -17 31 7 26 6 26 76 10z m128 -33 c0 -8 7
-15 15 -15 8 0 15 7 15 15 0 8 5 15 10 15 6 0 10 -9 10 -21 0 -17 -5 -20 -32
-17 -22 2 -34 9 -36 21 -2 9 1 17 7 17 6 0 11 -7 11 -15z m-55 -26 c-4 -6 1
-17 11 -24 25 -19 35 -19 28 0 -5 11 1 15 19 15 33 0 46 -20 18 -27 -12 -3
-21 -13 -21 -24 0 -18 -2 -18 -34 -2 -42 20 -60 73 -25 73 6 0 7 -5 4 -11z
m-45 -29 c0 -5 -5 -10 -11 -10 -5 0 -7 5 -4 10 3 6 8 10 11 10 2 0 4 -4 4 -10z
m1344 -6 c15 -39 0 -114 -23 -114 -5 0 -11 9 -14 20 -3 11 -10 20 -16 20 -7 0
-7 -9 0 -29 18 -53 -29 -117 -91 -123 l-35 -3 2 40 c1 22 8 57 14 77 9 29 15
35 27 29 18 -10 52 -3 52 11 0 5 11 8 24 6 30 -4 55 18 49 42 -3 11 -10 20
-15 20 -5 0 -6 5 -3 10 9 15 22 12 29 -6z m-180 -89 c-9 -14 -21 -22 -27 -18
-6 4 -1 13 12 25 31 24 35 23 15 -7z m2156 -20 c11 -13 8 -15 -21 -14 -19 1
-26 3 -16 6 9 2 17 9 17 14 0 13 6 11 20 -6z m64 -14 c4 -5 -3 -7 -14 -4 -23
6 -26 13 -6 13 8 0 17 -4 20 -9z m-3604 -26 c0 -9 -6 -12 -15 -9 -8 4 -15 10
-15 15 0 5 7 9 15 9 8 0 15 -7 15 -15z m3697 -2 c-20 -2 -52 -2 -70 0 -17 2 0
4 38 4 39 0 53 -2 32 -4z m-2337 -88 c14 -16 6 -35 -16 -35 -8 0 -14 10 -14
25 0 28 12 32 30 10z m1747 -78 c-6 -18 -105 -29 -142 -17 -27 9 -32 8 -48
-15 -23 -30 -47 -33 -47 -4 0 19 -5 20 -75 17 -41 -2 -75 -1 -75 2 0 3 -40 4
-90 2 -59 -2 -90 0 -90 7 0 6 17 12 38 12 20 1 96 4 167 8 186 9 367 3 362
-12z m311 17 c17 -3 32 -9 32 -14 0 -6 -15 -10 -32 -10 -18 1 -50 -1 -71 -4
-23 -3 -35 -1 -32 4 4 6 -2 10 -12 10 -13 0 -14 3 -6 8 15 10 76 12 121 6z
m-1954 -31 c8 -19 -2 -32 -12 -17 -7 11 -22 11 -57 -1 -19 -6 -19 -6 -3 8 10
8 15 17 12 20 -3 3 4 3 17 0 15 -4 20 -3 15 5 -4 8 -2 10 8 6 8 -3 17 -13 20
-21z m47 5 c3 -51 -12 -81 -31 -62 -6 6 -6 23 1 47 11 41 28 49 30 15z m2129
12 c-36 -12 -80 -12 -80 0 0 6 24 10 53 9 41 -1 47 -3 27 -9z m-2875 -10 c-3
-5 -21 -10 -38 -9 -31 1 -31 1 -7 9 36 11 52 11 45 0z m163 -2 c9 -9 26 -9 74
0 67 13 180 14 172 1 -2 -4 -29 -8 -59 -8 -30 0 -60 -3 -66 -7 -15 -9 -195 -4
-219 6 -5 2 49 15 76 19 5 0 15 -4 22 -11z m1592 2 c0 -5 -7 -10 -16 -10 -8 0
-12 5 -9 10 3 6 10 10 16 10 5 0 9 -4 9 -10z m-1315 -20 c3 -6 -1 -7 -9 -4
-18 7 -21 14 -7 14 6 0 13 -4 16 -10z m-1024 -25 c0 -5 -9 -11 -21 -13 -20 -3
-27 8 -13 22 10 9 34 3 34 -9z m844 -4 c-8 -8 -68 -11 -79 -3 -5 3 -2 8 8 12
22 7 80 0 71 -9z m220 -1 c-3 -5 -12 -7 -20 -3 -21 7 -19 13 6 13 11 0 18 -4
14 -10z m1954 -14 c-12 -10 -60 -16 -54 -6 3 5 18 10 32 10 15 0 24 -2 22 -4z
m-860 -88 c1 -5 -6 -8 -14 -8 -15 0 -21 31 -8 44 7 6 20 -17 22 -36z m906 2
c-3 -5 -13 -10 -21 -10 -8 0 -14 5 -14 10 0 6 9 10 21 10 11 0 17 -4 14 -10z
m-145 -25 c0 -10 -10 -15 -32 -15 l-33 1 25 14 c32 18 40 18 40 0z m-97 -2
c-7 -2 -19 -2 -25 0 -7 3 -2 5 12 5 14 0 19 -2 13 -5z m167 -13 c-20 -13 -47
-13 -55 0 -4 6 9 10 32 10 28 0 34 -3 23 -10z m-2721 -22 c1 6 13 12 27 12 14
0 23 -4 19 -10 -4 -6 5 -9 22 -8 15 1 42 1 58 -1 l30 -2 -25 -14 c-24 -14
-102 -13 -195 2 -16 3 -42 6 -57 6 -16 1 -28 8 -28 15 0 11 14 13 60 9 36 -2
63 0 67 6 4 6 10 3 14 -9 4 -10 8 -13 8 -6z m871 3 c0 -10 -7 -24 -15 -31 -8
-7 -15 -19 -15 -26 0 -8 -7 -14 -15 -14 -8 0 -22 -14 -31 -32 -14 -28 -17 -29
-26 -14 -7 12 -7 21 1 29 22 22 10 28 -18 8 -16 -12 -36 -21 -44 -21 -23 0
-30 18 -10 24 10 3 5 4 -12 2 -16 -2 -39 1 -50 7 -17 10 -10 13 45 17 36 3 75
2 87 -2 28 -9 63 19 41 33 -9 6 -6 9 10 9 12 0 25 7 28 15 8 21 24 19 24 -4z
m1380 -21 c-5 -10 -6 -21 -2 -25 4 -4 -4 -5 -18 -2 -14 4 -30 7 -35 7 -6 0
-11 8 -11 19 0 15 8 18 38 18 32 0 36 -2 28 -17z m90 1 c6 -13 23 -21 48 -24
34 -3 34 -4 -10 -5 -25 -1 -55 -5 -65 -8 -17 -5 -17 -5 0 9 16 14 16 15 -5 30
l-23 16 22 0 c12 1 27 -8 33 -18z m603 12 c-7 -2 -21 -2 -30 0 -10 3 -4 5 12
5 17 0 24 -2 18 -5z m-3128 -13 c-3 -5 -10 -10 -16 -10 -5 0 -9 5 -9 10 0 6 7
10 16 10 8 0 12 -4 9 -10z m733 -8 c-12 -14 -74 -10 -89 5 -6 6 10 9 45 9 42
-1 52 -4 44 -14z m352 -4 c-25 -9 -36 -5 -26 10 3 6 16 8 28 4 l22 -5 -24 -9z
m1115 -9 c22 -11 29 -16 15 -13 -14 4 -43 15 -65 25 -22 11 -29 16 -15 13 14
-4 43 -15 65 -25z m464 15 c2 -2 -7 -4 -22 -4 -14 0 -29 5 -32 10 -6 10 42 4
54 -6z m-2199 -4 c0 -13 -60 -13 -80 0 -11 7 -2 10 33 10 26 0 47 -4 47 -10z
m40 0 c0 -5 -7 -10 -15 -10 -8 0 -15 5 -15 10 0 6 7 10 15 10 8 0 15 -4 15
-10z m2315 -11 c5 -5 29 -9 55 -9 36 -1 42 -3 27 -11 -20 -12 -162 12 -181 31
-13 13 84 2 99 -11z m52 15 c-3 -3 -12 -4 -19 -1 -8 3 -5 6 6 6 11 1 17 -2 13
-5z m268 -30 c-22 -7 -58 -12 -80 -12 -41 0 -40 2 8 12 15 4 26 10 23 14 -2 4
17 5 42 3 l47 -4 -40 -13z m-2055 -9 c-10 -12 -16 -13 -28 -3 -13 11 -11 13 9
19 30 7 35 3 19 -16z m60 16 c0 -14 -18 -23 -30 -16 -6 4 -8 11 -5 16 8 12 35
12 35 0z m-367 -22 c5 -17 -1 -19 -58 -19 -35 0 -67 5 -70 10 -4 6 10 10 34
10 23 0 41 3 41 8 0 4 11 8 24 8 16 1 26 -5 29 -17z m1507 -4 c14 -8 21 -14
15 -14 -5 0 -21 6 -35 14 -14 8 -20 14 -15 14 6 0 21 -6 35 -14z m150 -1 c0
-2 -12 -4 -26 -4 -14 0 -23 4 -20 9 6 8 46 4 46 -5z m573 9 c-7 -2 -21 -2 -30
0 -10 3 -4 5 12 5 17 0 24 -2 18 -5z m-313 -13 c0 -5 12 -11 28 -11 27 -2 27
-2 2 -6 -14 -3 -30 -9 -37 -15 -12 -10 -73 -2 -73 9 0 3 8 12 18 19 20 16 62
18 62 4z m-2455 -10 c13 -6 15 -9 5 -9 -8 0 -22 4 -30 9 -18 12 -2 12 25 0z
m330 0 c-3 -5 -13 -10 -21 -10 -8 0 -12 5 -9 10 3 6 13 10 21 10 8 0 12 -4 9
-10z m1806 -27 c27 -14 47 -28 45 -31 -3 -2 -29 10 -58 27 -65 37 -55 41 13 4z
m429 17 c0 -5 -7 -10 -15 -10 -8 0 -15 5 -15 10 0 6 7 10 15 10 8 0 15 -4 15
-10z m-251 -4 c-2 -2 -24 -6 -48 -9 -29 -4 -40 -2 -30 4 13 8 88 14 78 5z
m371 -6 c0 -5 -2 -10 -4 -10 -3 0 -8 5 -11 10 -3 6 -1 10 4 10 6 0 11 -4 11
-10z m-1820 -10 c24 -15 0 -29 -63 -40 -32 -5 -62 -12 -67 -15 -15 -9 -30 4
-24 20 3 8 27 17 52 21 26 3 54 10 62 15 19 11 22 11 40 -1z m1863 3 c-7 -2
-19 -2 -25 0 -7 3 -2 5 12 5 14 0 19 -2 13 -5z m140 0 c-7 -2 -21 -2 -30 0
-10 3 -4 5 12 5 17 0 24 -2 18 -5z m304 1 c-3 -3 -12 -4 -19 -1 -8 3 -5 6 6 6
11 1 17 -2 13 -5z m-517 -20 c0 -2 -21 -4 -47 -3 -37 1 -42 3 -23 8 24 7 70 3
70 -5z m-750 -26 c0 -12 -6 -9 -26 13 -19 22 -19 22 4 8 12 -8 22 -17 22 -21z
m790 -8 c-16 -11 -40 -13 -40 -5 0 8 44 24 50 18 2 -2 -2 -8 -10 -13z m77 4
c-3 -3 -12 -4 -19 -1 -8 3 -5 6 6 6 11 1 17 -2 13 -5z m76 -1 c-7 -2 -19 -2
-25 0 -7 3 -2 5 12 5 14 0 19 -2 13 -5z m215 0 c-21 -2 -55 -2 -75 0 -21 2 -4
4 37 4 41 0 58 -2 38 -4z m-892 -49 c80 -48 93 -64 19 -23 -75 41 -102 59 -89
59 6 0 37 -16 70 -36z m-126 -55 c0 -5 3 -8 8 -8 19 3 32 -2 32 -12 0 -8 -5
-8 -15 1 -11 9 -15 9 -15 1 0 -14 -68 47 -82 73 -8 14 2 10 31 -13 22 -18 41
-37 41 -42z m250 60 c0 -5 17 -9 37 -9 49 0 39 -6 -20 -12 -39 -5 -49 -2 -57
12 -8 14 -5 18 15 18 14 0 25 -4 25 -9z m385 1 c4 -6 -7 -10 -24 -10 -17 0
-31 5 -31 10 0 6 11 10 24 10 14 0 28 -4 31 -10z m-170 -10 c4 -6 -12 -10 -42
-9 -43 1 -45 2 -18 9 44 11 53 11 60 0z m-3030 -10 c-3 -5 -21 -10 -38 -9 -31
1 -31 1 -7 9 36 11 52 11 45 0z m418 -7 c-7 -2 -19 -2 -25 0 -7 3 -2 5 12 5
14 0 19 -2 13 -5z m3077 -3 c0 -5 -7 -10 -16 -10 -8 0 -12 5 -9 10 3 6 10 10
16 10 5 0 9 -4 9 -10z m-989 -27 c16 -19 18 -23 4 -12 -11 9 -29 21 -40 27
-15 9 -16 11 -4 12 8 0 26 -12 40 -27z m614 17 c4 -6 -12 -10 -40 -10 -28 0
-44 4 -40 10 3 6 21 10 40 10 19 0 37 -4 40 -10z m-91 -16 c5 -14 1 -15 -26
-9 -18 4 -73 11 -123 15 l-90 7 116 1 c100 2 118 0 123 -14z m-2557 -20 c-3
-3 -12 -4 -19 -1 -8 3 -5 6 6 6 11 1 17 -2 13 -5z m2277 -23 c-2 -3 -12 3 -22
13 -16 17 -16 18 5 5 12 -7 20 -15 17 -18z m-84 -21 c8 -5 11 -10 5 -10 -5 0
-21 10 -35 21 -24 20 -5 13 30 -11z m-50 -5 c13 -14 20 -25 15 -25 -4 0 0 -9
10 -20 10 -11 16 -22 13 -25 -3 -3 -24 17 -47 45 -43 51 -35 72 9 25z m1010
-15 c-8 -5 -22 -10 -30 -10 -13 0 -13 1 0 10 8 5 22 10 30 10 13 0 13 -1 0
-10z m-3557 -7 c-7 -2 -19 -2 -25 0 -7 3 -2 5 12 5 14 0 19 -2 13 -5z m2668
-29 c9 -11 2 -9 -18 6 -18 13 -33 25 -33 27 0 8 38 -17 51 -33z m-2776 18
c-24 -21 -76 -35 -88 -23 -8 8 -6 11 10 11 12 0 25 5 28 10 3 6 18 10 33 10
15 0 22 -4 17 -8z m1425 -11 c5 -11 10 -27 10 -35 0 -11 -6 -9 -25 8 -14 13
-25 28 -25 35 0 18 28 13 40 -8z m1308 -10 c13 -7 21 -15 19 -18 -8 -7 -57 28
-57 41 0 8 2 8 8 0 4 -6 18 -17 30 -23z m824 11 c15 -6 64 -14 110 -17 128 -9
115 -20 -32 -25 -159 -6 -185 -3 -169 16 6 7 8 17 5 23 -12 19 40 21 86 3z
m-786 -140 c10 -20 26 -42 34 -49 8 -7 11 -13 5 -13 -5 0 -3 -5 5 -10 8 -5 10
-10 4 -10 -14 0 -25 13 -55 70 -13 25 -30 51 -36 58 -20 21 -15 27 6 8 10 -9
27 -33 37 -54z m-1096 -1 c0 -5 -7 -12 -16 -15 -14 -5 -15 -4 -4 9 14 17 20
19 20 6z m80 -28 c0 -13 -53 -113 -60 -113 -7 0 22 89 36 112 6 10 24 11 24 1z
m-66 -47 c-6 -16 -24 -23 -24 -8 0 10 22 33 27 28 2 -2 1 -11 -3 -20z m55 -80
c-11 -26 -23 -46 -25 -43 -5 5 16 68 29 85 19 24 17 5 -4 -42z m1111 7 c0 -7
-8 -13 -18 -13 -10 0 -23 -5 -30 -12 -7 -7 -12 -9 -12 -4 0 14 25 33 39 28 10
-3 11 2 6 19 -5 19 -4 21 4 9 6 -8 11 -21 11 -27z m-175 17 c18 -7 19 -8 3
-15 -21 -8 -48 0 -48 15 0 12 17 12 45 0z m-64 -13 c-1 -12 -15 -9 -19 4 -3 6
1 10 8 8 6 -3 11 -8 11 -12z m-581 -37 c0 -5 -4 -10 -10 -10 -5 0 -10 5 -10
10 0 6 5 10 10 10 6 0 10 -4 10 -10z m-190 -70 c0 -5 -4 -10 -10 -10 -5 0 -10
5 -10 10 0 6 5 10 10 10 6 0 10 -4 10 -10z m359 -141 c-16 -10 -23 -4 -14 10
3 6 11 8 17 5 6 -4 5 -9 -3 -15z m125 -147 c3 -6 1 -14 -5 -18 -7 -4 -9 -3 -5
4 3 6 -1 15 -9 20 -12 6 -14 16 -9 38 l8 29 6 -31 c4 -17 10 -36 14 -42z m526
-136 c-12 -25 -33 -54 -46 -65 -13 -10 -24 -22 -24 -26 0 -14 81 59 96 86 8
16 18 29 23 29 11 0 12 -68 1 -75 -10 -6 -2 -35 10 -35 5 0 14 16 20 35 6 19
16 35 21 35 12 0 12 -4 -8 -45 -9 -19 -21 -35 -27 -35 -15 0 -39 -54 -27 -58
6 -2 8 -17 4 -33 -10 -51 13 -32 46 39 29 61 31 64 27 29 -6 -48 -44 -127 -60
-127 -8 0 -11 -12 -8 -37 5 -36 4 -37 -14 -23 -10 8 -27 24 -37 35 -14 16 -14
14 3 -15 22 -39 26 -55 9 -45 -6 4 -17 -1 -24 -11 -9 -12 -14 -14 -15 -6 0 9
-7 11 -22 7 -18 -6 -20 -4 -13 11 16 41 17 55 2 72 -19 22 -33 67 -18 58 7 -5
5 10 -5 33 -14 35 -14 44 -3 59 13 15 12 16 -4 3 -23 -18 -34 -6 -14 17 9 9
20 37 26 60 11 50 34 79 65 84 35 6 40 -8 16 -56z m187 -285 c-9 -20 -18 -52
-20 -71 -5 -35 -17 -68 -39 -105 -6 -11 -14 -26 -18 -34 -14 -31 -28 -23 -19
11 16 59 84 253 94 268 17 26 19 -28 2 -69z m-285 -113 c-9 -9 -12 -4 -11 23
0 32 1 33 11 11 8 -17 8 -26 0 -34z m164 -16 c-12 -12 -18 8 -10 35 l8 28 4
-28 c2 -16 1 -31 -2 -35z m-316 -216 c0 -3 -4 -8 -10 -11 -5 -3 -10 -1 -10 4
0 6 5 11 10 11 6 0 10 -2 10 -4z m605 -86 c3 -5 -1 -10 -10 -10 -9 0 -13 5
-10 10 3 6 8 10 10 10 2 0 7 -4 10 -10z m95 -40 c0 -5 -4 -10 -10 -10 -5 0
-10 5 -10 10 0 6 5 10 10 10 6 0 10 -4 10 -10z m-697 -37 c-7 -2 -19 -2 -25 0
-7 3 -2 5 12 5 14 0 19 -2 13 -5z m971 -22 c3 -5 -4 -11 -16 -14 -25 -7 -33
-3 -23 12 8 13 32 14 39 2z m176 -1 c-36 -12 -90 -12 -90 0 0 6 25 10 58 9 43
-1 51 -3 32 -9z m-845 -20 c-3 -5 -11 -10 -16 -10 -6 0 -7 5 -4 10 3 6 11 10
16 10 6 0 7 -4 4 -10z m580 0 c8 -13 -5 -13 -25 0 -13 8 -13 10 2 10 9 0 20
-4 23 -10z m-70 -20 c-3 -5 -10 -10 -16 -10 -5 0 -9 5 -9 10 0 6 7 10 16 10 8
0 12 -4 9 -10z"/>
<path d="M2192 3988 c7 -19 53 -21 68 -4 11 14 7 16 -30 16 -29 0 -40 -4 -38
-12z"/>
<path d="M3378 3966 c3 -26 9 -35 27 -38 28 -6 55 8 55 27 0 21 17 27 39 13
15 -9 25 -9 44 -1 20 10 28 9 38 -3 10 -13 15 -13 35 1 33 22 57 19 82 -10 31
-35 82 -32 94 5 3 9 17 15 38 15 18 0 35 6 37 13 4 9 -49 12 -244 12 l-249 0
4 -34z"/>
<path d="M3950 3980 c6 -11 20 -20 30 -20 13 0 20 7 20 20 0 16 -7 20 -30 20
-28 0 -30 -2 -20 -20z"/>
<path d="M1608 3943 c7 -3 16 -2 19 1 4 3 -2 6 -13 5 -11 0 -14 -3 -6 -6z"/>
<path d="M799 3903 c-3 -24 4 -70 13 -80 8 -10 15 -7 30 13 11 14 26 23 33 20
7 -2 21 2 32 9 17 14 17 14 -4 15 -13 0 -23 5 -23 11 0 8 -5 7 -15 -1 -13 -10
-19 -10 -33 4 -20 17 -31 20 -33 9z"/>
<path d="M3675 3868 c-75 -20 -96 -30 -93 -47 2 -10 12 -15 28 -13 14 1 85 2
158 2 111 0 132 2 132 14 0 41 -136 68 -225 44z"/>
<path d="M2830 3770 c0 -5 5 -10 11 -10 5 0 7 5 4 10 -3 6 -8 10 -11 10 -2 0
-4 -4 -4 -10z"/>
<path d="M3325 3739 l16 -31 -53 3 c-43 3 -53 0 -56 -14 -2 -9 -11 -17 -20
-18 -44 -2 51 -19 143 -25 69 -4 104 -3 109 4 3 6 27 14 51 18 25 3 45 9 45
13 0 11 -45 51 -57 51 -7 0 -13 -12 -15 -27 -2 -22 -8 -28 -28 -28 -18 0 -26
6 -28 23 -3 18 -10 22 -36 22 -20 0 -40 8 -51 20 -27 30 -38 24 -20 -11z"/>
<path d="M870 3740 c0 -6 -11 -16 -25 -22 -33 -15 -31 -51 3 -56 26 -4 29 -17
5 -31 -16 -9 -16 -12 -3 -21 19 -13 30 -13 30 0 0 6 18 10 40 10 30 0 40 4 40
16 0 11 -6 15 -20 11 -24 -6 -25 -1 -5 19 22 22 18 41 -9 48 -14 3 -32 13 -40
22 -9 8 -16 11 -16 4z"/>
<path d="M750 3691 c0 -9 24 -21 41 -21 5 0 9 7 9 15 0 9 -9 15 -25 15 -14 0
-25 -4 -25 -9z"/>
<path d="M3578 3673 c6 -2 18 -2 25 0 6 3 1 5 -13 5 -14 0 -19 -2 -12 -5z"/>
<path d="M1165 3640 c3 -5 13 -10 21 -10 8 0 14 5 14 10 0 6 -9 10 -21 10 -11
0 -17 -4 -14 -10z"/>
<path d="M713 3495 c-18 -19 -16 -25 6 -25 16 0 31 18 31 36 0 10 -26 2 -37
-11z"/>
<path d="M2278 3443 c6 -2 18 -2 25 0 6 3 1 5 -13 5 -14 0 -19 -2 -12 -5z"/>
<path d="M670 3430 c0 -5 4 -10 9 -10 6 0 13 5 16 10 3 6 -1 10 -9 10 -9 0
-16 -4 -16 -10z"/>
<path d="M2198 3433 c7 -3 16 -2 19 1 4 3 -2 6 -13 5 -11 0 -14 -3 -6 -6z"/>
<path d="M2405 3238 c-27 -67 -28 -75 -7 -43 18 28 37 85 28 85 -2 0 -12 -19
-21 -42z"/>
<path d="M1830 3010 c0 -5 5 -10 10 -10 6 0 10 5 10 10 0 6 -4 10 -10 10 -5 0
-10 -4 -10 -10z"/>
<path d="M1840 2959 c0 -5 5 -7 10 -4 6 3 10 8 10 11 0 2 -4 4 -10 4 -5 0 -10
-5 -10 -11z"/>
<path d="M2561 2864 c0 -11 3 -14 6 -6 3 7 2 16 -1 19 -3 4 -6 -2 -5 -13z"/>
<path d="M1885 2720 c3 -5 8 -10 11 -10 2 0 4 5 4 10 0 6 -5 10 -11 10 -5 0
-7 -4 -4 -10z"/>
<path d="M2386 2721 c-4 -7 -5 -15 -2 -18 9 -9 19 4 14 18 -4 11 -6 11 -12 0z"/>
<path d="M1900 2693 c0 -5 5 -24 10 -45 8 -27 18 -39 42 -47 49 -17 52 -13 19
24 -17 20 -31 39 -31 43 0 4 -9 13 -20 20 -11 7 -20 9 -20 5z"/>
<path d="M1835 2661 c-3 -5 -1 -12 5 -16 5 -3 10 1 10 9 0 18 -6 21 -15 7z"/>
<path d="M976 2574 c-18 -17 -21 -34 -7 -34 22 0 59 20 64 34 9 22 -36 22 -57
0z"/>
<path d="M1188 2564 c-5 -4 -8 -16 -8 -26 0 -11 -7 -18 -20 -18 -10 0 -31 -12
-45 -26 -31 -31 -55 -20 -34 14 7 12 11 24 8 27 -12 12 -37 -7 -44 -33 -5 -20
-1 -30 17 -44 13 -10 18 -18 11 -18 -6 0 -9 -8 -6 -19 9 -36 -60 -72 -73 -38
-12 31 -8 74 9 107 17 35 17 35 -4 38 -15 3 -35 -12 -71 -52 -27 -31 -54 -56
-60 -56 -6 0 -28 -19 -49 -41 -25 -27 -44 -39 -54 -36 -8 4 -15 3 -16 -1 0 -4
-2 -45 -4 -91 -3 -54 -10 -92 -20 -107 -9 -14 -13 -30 -9 -36 4 -7 3 -8 -4 -4
-7 4 -26 -7 -44 -24 -18 -17 -57 -45 -85 -62 -29 -16 -53 -32 -53 -34 0 -8 58
22 113 58 58 40 63 41 48 10 -41 -83 -67 -160 -40 -122 7 10 9 11 7 2 -8 -31
-142 -77 -180 -63 -13 4 -28 6 -35 4 -6 -2 -14 0 -17 5 -4 6 -23 6 -52 0 -36
-8 -48 -7 -54 3 -5 7 -18 14 -31 16 -19 3 -20 1 -9 -14 7 -10 1 -5 -14 10 -14
15 -26 38 -26 50 -1 19 -2 20 -10 6 -7 -12 -5 -28 5 -53 14 -32 6 -52 -10 -26
-9 15 -25 12 -19 -4 4 -10 -5 -16 -25 -21 -52 -11 -44 -23 17 -23 87 0 264
-22 291 -35 30 -15 30 -27 0 -47 -21 -14 -22 -14 -16 3 3 9 2 17 -3 17 -6 0
-10 -7 -10 -15 0 -23 -29 -18 -88 15 -33 18 -52 24 -48 15 2 -7 1 -15 -5 -17
-13 -4 32 -67 51 -70 8 -2 -10 -13 -40 -25 -55 -22 -43 -31 18 -14 20 6 30 6
27 0 -4 -5 -15 -9 -26 -9 -10 0 -19 -4 -19 -10 0 -5 -10 -10 -22 -10 -13 0
-30 -5 -38 -10 -32 -20 35 -10 104 16 63 25 70 26 81 11 7 -9 14 -16 16 -14 2
1 -2 -4 -10 -11 -8 -6 -26 -13 -40 -13 -23 -2 -23 -2 -4 -6 12 -2 34 2 50 10
15 8 42 17 58 21 l30 7 -21 -21 c-12 -12 -43 -32 -70 -45 -31 -15 -42 -24 -29
-24 18 -1 102 38 182 85 31 18 32 18 90 -10 48 -23 66 -26 98 -20 57 10 121
57 136 99 10 28 18 35 39 35 14 0 56 19 93 43 63 39 69 46 94 110 14 37 30 67
34 67 4 0 11 9 14 20 5 15 12 19 26 15 10 -4 19 -2 19 3 0 6 -5 12 -11 14 -7
2 -4 10 7 18 16 13 17 13 12 0 -3 -8 -2 -24 3 -35 6 -17 8 -17 8 -2 1 9 5 17
11 17 19 0 -2 -65 -29 -87 -30 -26 -12 -31 24 -7 14 9 25 12 25 8 1 -8 50 135
50 145 0 2 -9 -8 -20 -22 -11 -14 -20 -33 -20 -43 0 -16 -1 -16 -14 2 -13 17
-12 22 15 49 30 32 40 57 14 35 -10 -8 -15 -9 -15 -2 0 6 -7 9 -16 5 -14 -5
-15 -3 -1 23 8 16 18 45 22 64 4 19 15 50 26 68 10 17 14 32 9 32 -6 0 -10 5
-10 10 0 19 27 10 61 -21 34 -30 127 -89 142 -89 13 0 7 19 -12 37 -11 10 -23
32 -27 48 -10 41 -44 105 -55 105 -11 0 -61 -31 -69 -42 -3 -4 -18 -5 -34 -2
-15 2 -35 -1 -43 -7 -12 -10 -16 -10 -23 2 -7 10 -5 15 6 17 12 3 10 9 -9 28
-33 32 -76 122 -85 174 -4 23 -10 38 -14 34z m-90 -668 c-6 -12 -20 -29 -31
-38 -11 -10 -15 -18 -9 -18 6 0 9 -8 6 -17 -5 -15 -4 -15 4 -3 6 8 8 18 6 22
-3 4 2 8 11 8 29 0 -10 -57 -47 -68 -55 -17 -70 -13 -63 17 8 35 54 103 64 97
4 -3 19 6 31 19 27 29 46 15 28 -19z m-372 -5 c-8 -12 -155 -101 -168 -101 -5
0 -6 -4 -3 -10 9 -15 0 -12 -23 9 -26 22 -29 36 -6 27 9 -4 22 -3 28 2 6 5 36
19 66 31 30 12 66 30 80 41 25 19 37 20 26 1z m-11 -191 c-3 -5 -11 -10 -16
-10 -6 0 -7 5 -4 10 3 6 11 10 16 10 6 0 7 -4 4 -10z m104 -39 c-15 -43 -41
-55 -87 -40 -20 6 -41 16 -47 22 -7 7 -4 8 10 3 57 -21 71 -18 101 17 16 18
30 33 32 32 1 -1 -3 -16 -9 -34z m-196 4 c-3 -9 -8 -14 -10 -11 -3 3 -2 9 2
15 9 16 15 13 8 -4z m74 -1 c-3 -3 -12 -4 -19 -1 -8 3 -5 6 6 6 11 1 17 -2 13
-5z m43 2 c0 -11 -19 -15 -25 -6 -3 5 1 10 9 10 9 0 16 -2 16 -4z"/>
<path d="M1022 1865 c-6 -14 -8 -25 -3 -25 8 0 23 41 17 47 -1 2 -8 -8 -14
-22z"/>
<path d="M2203 2553 c9 -2 23 -2 30 0 6 3 -1 5 -18 5 -16 0 -22 -2 -12 -5z"/>
<path d="M435 2540 c-3 -5 3 -10 14 -10 12 0 21 5 21 10 0 6 -6 10 -14 10 -8
0 -18 -4 -21 -10z"/>
<path d="M480 2540 c0 -5 6 -10 14 -10 8 0 18 5 21 10 3 6 -3 10 -14 10 -12 0
-21 -4 -21 -10z"/>
<path d="M610 2530 c-11 -7 3 -10 48 -10 35 0 62 4 62 10 0 13 -90 13 -110 0z"/>
<path d="M800 2516 c0 -2 7 -9 15 -16 13 -11 14 -10 9 4 -5 14 -24 23 -24 12z"/>
<path d="M731 2464 c0 -11 3 -14 6 -6 3 7 2 16 -1 19 -3 4 -6 -2 -5 -13z"/>
<path d="M1012 2460 c-15 -25 4 -38 24 -18 13 12 13 17 2 26 -11 8 -17 6 -26
-8z"/>
<path d="M0 2378 c1 -84 2 -91 15 -74 8 11 15 28 15 37 0 10 5 21 10 24 6 4
10 -5 10 -19 0 -14 4 -26 9 -26 5 0 8 20 7 45 -1 37 -4 45 -17 42 -9 -3 -23
-1 -30 4 -10 6 -3 9 19 9 20 0 31 4 27 10 -3 6 -2 10 4 10 5 0 11 -5 13 -11 2
-6 15 -9 28 -7 20 2 12 8 -36 26 -34 12 -64 22 -68 22 -3 0 -6 -42 -6 -92z"/>
<path d="M766 2462 c-9 -15 53 -27 67 -13 8 8 7 11 -3 11 -8 0 -25 3 -36 6
-12 3 -25 1 -28 -4z"/>
<path d="M3428 2453 c7 -3 16 -2 19 1 4 3 -2 6 -13 5 -11 0 -14 -3 -6 -6z"/>
<path d="M1000 2404 c0 -8 5 -12 10 -9 6 4 8 11 5 16 -9 14 -15 11 -15 -7z"/>
<path d="M3338 2413 c7 -3 16 -2 19 1 4 3 -2 6 -13 5 -11 0 -14 -3 -6 -6z"/>
<path d="M3400 2410 c34 -11 60 -11 35 0 -11 5 -29 8 -40 8 -16 0 -15 -2 5 -8z"/>
<path d="M1990 2401 c0 -5 -3 -17 -7 -27 -4 -11 -3 -15 4 -11 14 9 24 47 12
47 -5 0 -9 -4 -9 -9z"/>
<path d="M80 2389 c0 -5 5 -7 10 -4 6 3 10 8 10 11 0 2 -4 4 -10 4 -5 0 -10
-5 -10 -11z"/>
<path d="M3715 2390 c20 -9 122 -14 114 -6 -2 2 -33 6 -69 9 -40 3 -57 2 -45
-3z"/>
<path d="M3485 2370 c-20 -4 3 -8 65 -11 52 -3 109 -2 125 2 27 6 26 7 -15 9
-25 1 -67 3 -95 4 -27 1 -63 -1 -80 -4z"/>
<path d="M2010 2344 c0 -13 -4 -24 -10 -24 -5 0 -10 -4 -10 -10 0 -23 30 5 31
29 0 26 0 26 10 3 8 -22 10 -22 25 -7 14 13 19 14 25 3 6 -9 9 -9 9 -1 0 16
-20 27 -52 29 -23 1 -28 -2 -28 -22z"/>
<path d="M3984 2341 c8 -12 -55 -26 -63 -14 -4 6 -18 5 -36 -3 -30 -13 -30
-13 20 -13 64 -1 95 8 95 25 0 8 -5 14 -11 14 -5 0 -8 -4 -5 -9z"/>
<path d="M2154 2312 c4 -7 1 -12 -7 -12 -18 0 -30 -27 -16 -36 12 -7 39 14 39
32 0 7 -5 16 -12 20 -7 4 -8 3 -4 -4z"/>
<path d="M3775 2300 c4 -6 11 -8 16 -5 14 9 11 15 -7 15 -8 0 -12 -5 -9 -10z"/>
<path d="M2350 2294 c0 -6 11 -21 24 -33 13 -12 26 -34 30 -49 8 -41 45 -95
60 -89 8 3 13 -1 12 -10 0 -8 10 -22 24 -31 l25 -16 -19 22 c-11 13 -20 31
-21 41 -1 10 -18 35 -38 56 -20 21 -37 41 -37 45 0 4 -13 23 -30 41 -16 19
-30 29 -30 23z"/>
<path d="M3940 2289 c-25 -5 -55 -7 -67 -4 -12 3 -25 1 -28 -5 -4 -6 20 -10
64 -10 41 0 71 -4 71 -10 0 -5 5 -10 10 -10 6 0 10 11 10 25 0 14 -3 25 -7 24
-5 -1 -28 -5 -53 -10z"/>
<path d="M2017 2264 c-8 -8 1 -24 14 -24 5 0 9 7 9 15 0 15 -12 20 -23 9z"/>
<path d="M3855 2250 c27 -12 43 -12 25 0 -8 5 -22 9 -30 9 -10 0 -8 -3 5 -9z"/>
<path d="M1609 2228 c-8 -18 -6 -31 5 -53 17 -32 18 -31 21 28 3 45 -11 58
-26 25z"/>
<path d="M2640 2240 c0 -5 -7 -7 -15 -4 -19 8 -19 -6 1 -34 8 -12 26 -22 39
-22 13 0 27 -4 30 -10 3 -5 11 -10 16 -10 6 0 4 7 -5 15 -8 8 -20 15 -27 15
-10 0 -10 3 -1 12 18 18 15 28 -9 28 -11 0 -17 5 -14 10 3 6 1 10 -4 10 -6 0
-11 -4 -11 -10z"/>
<path d="M3698 2233 c12 -2 30 -2 40 0 9 3 -1 5 -23 4 -22 0 -30 -2 -17 -4z"/>
<path d="M3795 2230 c-5 -8 91 -20 161 -20 24 0 44 5 44 10 0 6 -17 10 -37 10
-21 0 -66 2 -101 4 -34 2 -64 1 -67 -4z"/>
<path d="M2077 2183 c-4 -3 -7 -11 -7 -17 0 -6 5 -5 12 2 6 6 9 14 7 17 -3 3
-9 2 -12 -2z"/>
<path d="M2827 2149 c-10 -6 -35 -8 -57 -4 -36 6 -38 5 -33 -15 3 -12 11 -24
17 -26 11 -4 116 42 116 51 0 8 -24 5 -43 -6z"/>
<path d="M1363 2090 c-1 -11 2 -18 8 -15 11 7 12 35 1 35 -4 0 -8 -9 -9 -20z"/>
<path d="M1975 2039 c-11 -17 1 -21 15 -4 8 9 8 15 2 15 -6 0 -14 -5 -17 -11z"/>
<path d="M3545 1920 c3 -5 10 -10 16 -10 5 0 9 5 9 10 0 6 -7 10 -16 10 -8 0
-12 -4 -9 -10z"/>
<path d="M3738 1903 c7 -3 16 -2 19 1 4 3 -2 6 -13 5 -11 0 -14 -3 -6 -6z"/>
<path d="M130 1130 c0 -5 5 -10 11 -10 5 0 7 5 4 10 -3 6 -8 10 -11 10 -2 0
-4 -4 -4 -10z"/>
<path d="M3493 1123 c9 -2 23 -2 30 0 6 3 -1 5 -18 5 -16 0 -22 -2 -12 -5z"/>
<path d="M3240 876 c-6 -8 -18 -12 -26 -9 -8 3 -14 0 -14 -6 0 -6 6 -11 13
-11 15 1 66 39 51 40 -6 0 -17 -6 -24 -14z"/>
<path d="M3100 820 c20 -13 33 -13 25 0 -3 6 -14 10 -23 10 -15 0 -15 -2 -2
-10z"/>
<path d="M480 789 c0 -5 5 -7 10 -4 6 3 10 8 10 11 0 2 -4 4 -10 4 -5 0 -10
-5 -10 -11z"/>
<path d="M2758 763 c7 -3 16 -2 19 1 4 3 -2 6 -13 5 -11 0 -14 -3 -6 -6z"/>
<path d="M2757 746 c-54 -15 -71 -26 -38 -26 35 0 111 21 111 31 0 12 -14 11
-73 -5z"/>
<path d="M3520 660 c0 -5 5 -10 11 -10 5 0 7 5 4 10 -3 6 -8 10 -11 10 -2 0
-4 -4 -4 -10z"/>
<path d="M127 540 c-26 -16 -47 -32 -47 -36 0 -4 10 1 23 10 12 9 40 25 62 36
22 10 33 19 24 19 -8 1 -36 -12 -62 -29z"/>
<path d="M3403 553 c9 -2 23 -2 30 0 6 3 -1 5 -18 5 -16 0 -22 -2 -12 -5z"/>
<path d="M3947 373 c-10 -17 13 -53 33 -53 16 0 20 7 20 30 0 25 -4 30 -24 30
-14 0 -27 -3 -29 -7z"/>
<path d="M0 360 c0 -12 27 -12 55 0 16 7 13 9 -17 9 -21 1 -38 -3 -38 -9z"/>
<path d="M3960 85 c0 -2 9 -9 20 -15 16 -9 20 -8 20 5 0 8 -9 15 -20 15 -11 0
-20 -2 -20 -5z"/>
<path d="M3943 43 c-38 -7 -26 -23 17 -23 29 0 40 4 40 15 0 15 -13 17 -57 8z"/>
<path d="M3790 10 c0 -5 7 -10 15 -10 8 0 15 5 15 10 0 6 -7 10 -15 10 -8 0
-15 -4 -15 -10z"/>
<path d="M3978 3 c7 -3 16 -2 19 1 4 3 -2 6 -13 5 -11 0 -14 -3 -6 -6z"/>
</g>
</svg>
