<svg width="16" height="16" viewBox="0 0 16 16" fill="none" xmlns="http://www.w3.org/2000/svg">
<mask id="mask0" mask-type="alpha" maskUnits="userSpaceOnUse" x="0" y="0" width="16" height="16">
<path d="M15.9898 8.40649C15.9966 8.27184 16 8.13632 16 8C16 3.58172 12.4183 0 7.99998 0C7.86373 0 7.72827 0.0034063 7.59369 0.0101384C7.25663 0.0674531 7 0.360901 7 0.714287V2C3.13401 2 0 5.13401 0 9C0 12.866 3.13401 16 7 16C10.866 16 14 12.866 14 9H15.2857C15.639 9 15.9324 8.74346 15.9898 8.40649Z" fill="white"/>
</mask>
<g mask="url(#mask0)">
<circle cx="7" cy="9" r="7" fill="url(#paint0_linear)"/>
<path opacity="0.5" d="M15.9898 8.90649C15.9966 8.77184 16 8.63632 16 8.5C16 4.08172 12.4183 0.5 7.99998 0.5C7.86373 0.5 7.72827 0.503406 7.59369 0.510138C7.25663 0.567453 7 0.860901 7 1.21429V9.5H15.2857C15.639 9.5 15.9324 9.24346 15.9898 8.90649Z" fill="black" stroke="black" stroke-opacity="0.5"/>
<path fill-rule="evenodd" clip-rule="evenodd" d="M15.9898 8.40649C15.9966 8.27184 16 8.13632 16 8C16 3.58172 12.4183 0 7.99998 0C7.86373 0 7.72827 0.0034063 7.59369 0.0101384C7.25663 0.0674531 7 0.360901 7 0.714287V9H15.2857C15.639 9 15.9324 8.74346 15.9898 8.40649Z" fill="url(#paint1_linear)"/>
<mask id="mask1" mask-type="alpha" maskUnits="userSpaceOnUse" x="7" y="0" width="9" height="9">
<path fill-rule="evenodd" clip-rule="evenodd" d="M15.9898 8.40649C15.9966 8.27184 16 8.13632 16 8C16 3.58172 12.4183 0 7.99998 0C7.86373 0 7.72827 0.0034063 7.59369 0.0101384C7.25663 0.0674531 7 0.360901 7 0.714287V9H15.2857C15.639 9 15.9324 8.74346 15.9898 8.40649Z" fill="url(#paint2_linear)"/>
</mask>
<g mask="url(#mask1)">
<path opacity="0.5" d="M7 5.5H10.2308C10.6556 5.5 11 5.8444 11 6.26923V9.5H7V5.5Z" fill="black" stroke="black" stroke-opacity="0.5"/>
<path d="M7 5H10.2308C10.6556 5 11 5.3444 11 5.76923V9H7V5Z" fill="url(#paint3_linear)"/>
</g>
</g>
<defs>
<linearGradient id="paint0_linear" x1="5.13914" y1="6.72543" x2="9.81686" y2="15.4597" gradientUnits="userSpaceOnUse">
<stop stop-color="#0078D4"/>
<stop offset="1" stop-color="#2064AE"/>
</linearGradient>
<linearGradient id="paint1_linear" x1="9.33335" y1="1.58333" x2="18.1973" y2="9.62217" gradientUnits="userSpaceOnUse">
<stop stop-color="#40C4F5"/>
<stop offset="1" stop-color="#0095E6"/>
</linearGradient>
<linearGradient id="paint2_linear" x1="9.33335" y1="1.58333" x2="18.1973" y2="9.62217" gradientUnits="userSpaceOnUse">
<stop stop-color="#40C4F5"/>
<stop offset="1" stop-color="#0095E6"/>
</linearGradient>
<linearGradient id="paint3_linear" x1="7.29222" y1="5.03247" x2="8.98747" y2="9.31227" gradientUnits="userSpaceOnUse">
<stop stop-color="#A7F2FF"/>
<stop offset="1" stop-color="#7CECFF"/>
</linearGradient>
</defs>
</svg>
