<?xml version="1.0" encoding="utf-8"?>
<!-- Generator: Adobe Illustrator 17.0.0, SVG Export Plug-In . SVG Version: 6.00 Build 0)  -->
<!DOCTYPE svg PUBLIC "-//W3C//DTD SVG 1.1//EN" "http://www.w3.org/Graphics/SVG/1.1/DTD/svg11.dtd">
<svg version="1.1" id="Layer_1" xmlns="http://www.w3.org/2000/svg" xmlns:xlink="http://www.w3.org/1999/xlink" x="0px" y="0px"
	 width="683px" height="414px" viewBox="0 0 683 414" style="enable-background:new 0 0 683 414;" xml:space="preserve">
<style type="text/css">
	.st0{fill:#006bb6;}
</style>
<path id="XMLID_87_" class="st0" d="M315.9,75.6c7.2,0,8.6,3.5,8.6,9.6c-0.2,82.8-0.1,165.6-0.1,248.4c0,2.3,0,4.6,0,8.3
	c-6.5,0-12.7,0.9-18.6-0.1c-89.2-16.1-175.7-9.1-259,28.4c-5.7,2.6-11.2,5.5-16.9,8.4c-0.5,0.2-0.8,0.7-0.9,1.8
	c1.7-0.7,3.4-1.4,5-2.1C93.8,352.9,155.9,339,220.8,339c33.8,0,67.3,3.9,100.2,12.3c7.8,2,11.1-0.5,11.1-8.2
	c0-40.8,0.1-81.5-0.1-122.3c0-4.3,1.2-7.2,4.4-10.2c25.2-23.4,50.3-47.1,76.1-71.4c3.7,0.5,4.9,3.6,4.9,8.7
	c-0.2,78.3-0.1,156.6-0.1,234.9c0,6.8-4.4,10.1-11,7.9c-34.8-11.7-70.2-20.6-106.6-25.3c-22.4-2.9-44.9-5.1-67.5-6
	c-64.4-2.8-127.9,4.4-190.1,21.5c-8.6,2.4-17.1,5.2-25.7,7.8c-2,0.6-4,0.9-6.9,1.5c0-10.4-0.1-20.1,0.1-29.7c0-1.3,1.6-2.7,2.7-3.8
	C53,313.8,88.8,267.2,119,216.4c34.5-57.9,62.3-118.7,78.2-184.5c0.9-3.8,1.8-7.7,2.6-11.5c0.7-3.6,1.4-7.3,2-10.9
	c9.8,0.5,9.8,0.5,9.8,9.3c0,94.5,0,188.9,0,283.4c0,9.1,0,9.1-9,10.1c-40.8,4.3-80.1,14.2-117.6,31c-19.7,8.8-38.5,19.2-55.7,32.4
	c1.4-0.8,2.9-1.5,4.3-2.3c45.3-27.4,94.3-44.2,146.6-51.5c10.5-1.4,21-2.3,31.6-3.2c6.3-0.6,7.3-1.5,7.3-7.8
	c0-26.6,0.1-53.2-0.1-79.7c0-4.3,1.3-7.3,4.2-10.4c39.1-41.7,68.9-89.3,91.1-141.9C314.9,77.6,315.5,76.5,315.9,75.6z"/>
<g>
	<path class="st0" d="M502.4,307.7v73h-4.4l-49.7-63.4v63.4H443v-73h4.5l49.6,63.4v-63.4H502.4z"/>
	<path class="st0" d="M573,360.1h-42.3l-9.3,20.5h-5.7l33.6-73h5.3l33.6,73h-5.7L573,360.1z M571.1,355.6l-19.2-42.1l-19.1,42.1
		H571.1z"/>
	<path class="st0" d="M655.9,307.7l-32.5,73h-5.3l-32.5-73h5.8l29.5,66.1l29.5-66.1H655.9z"/>
</g>
</svg>
